<svg width="230" height="230" viewBox="0 0 230 230" fill="none" xmlns="http://www.w3.org/2000/svg">
<g filter="url(#filter0_d_23_2149)">
<rect x="35" y="19" width="160" height="160" rx="38" fill="#1F2327"/>
<path d="M97.0465 154C107.162 154 115.373 145.788 115.373 135.673V117.346H97.0465C86.9311 117.346 78.7196 125.558 78.7196 135.673C78.7196 145.788 86.9311 154 97.0465 154Z" fill="#0ACF83"/>
<path d="M78.7 99C78.7 88.8846 86.9115 80.6731 97.0269 80.6731H115.354V117.346H97.0269C86.9115 117.346 78.7 109.135 78.7 99.0192V99Z" fill="#A259FF"/>
<path d="M78.7 62.3269C78.7 52.2115 86.9115 44 97.0269 44H115.354V80.6731H97.0269C86.9115 80.6731 78.7 72.4615 78.7 62.3462V62.3269Z" fill="#F24E1E"/>
<path d="M115.201 44H133.527C143.643 44 151.854 52.2115 151.854 62.3269C151.854 72.4423 143.643 80.6539 133.527 80.6539H115.201V44Z" fill="#FF7262"/>
<path d="M152.047 99C152.047 109.115 143.835 117.327 133.72 117.327C123.604 117.327 115.201 109.115 115.201 99C115.201 88.8846 123.412 80.6731 133.527 80.6731C143.643 80.6731 151.854 88.8846 151.854 99H152.047Z" fill="#1ABCFE"/>
<rect x="33.5" y="17.5" width="163" height="163" rx="39.5" stroke="white" stroke-opacity="0.08" stroke-width="3"/>
</g>
<defs>
<filter id="filter0_d_23_2149" x="0" y="0" width="230" height="230" filterUnits="userSpaceOnUse" color-interpolation-filters="sRGB">
<feFlood flood-opacity="0" result="BackgroundImageFix"/>
<feColorMatrix in="SourceAlpha" type="matrix" values="0 0 0 0 0 0 0 0 0 0 0 0 0 0 0 0 0 0 127 0" result="hardAlpha"/>
<feOffset dy="16"/>
<feGaussianBlur stdDeviation="16"/>
<feColorMatrix type="matrix" values="0 0 0 0 0 0 0 0 0 0 0 0 0 0 0 0 0 0 0.16 0"/>
<feBlend mode="normal" in2="BackgroundImageFix" result="effect1_dropShadow_23_2149"/>
<feBlend mode="normal" in="SourceGraphic" in2="effect1_dropShadow_23_2149" result="shape"/>
</filter>
</defs>
</svg>
