<svg width="883" height="784" viewBox="0 0 883 784" fill="none" xmlns="http://www.w3.org/2000/svg">
<path d="M806 544.5C942.8 308.1 863 153.333 806 105.5H754C747.613 186.484 717.083 259.563 665.5 320C673.431 346.333 658.8 418.373 620 443C581.2 467.627 521.833 459.761 506.5 449.5C507.5 464.739 504.3 474.644 477.5 504C450.7 533.356 373.5 538 336.5 520.195C289.508 532.614 236.453 541.646 178 544.5C150.54 544.5 129.05 534.668 112.504 520.195H0.875502C1.17471 544.812 4.46755 570.35 13.0001 593C40.5001 666 129 758 178 770C227 782 635 840 806 544.5Z" fill="white"/>
<path d="M759.47 17C759.179 32.0323 757.636 59.3947 754 105.5H806V17H759.47Z" fill="white"/>
<path d="M65 425.5H13.0001C7.38869 444.783 0.403241 481.341 0.875502 520.195H112.504C82.0517 493.558 68.3478 451.202 65 425.5Z" fill="white"/>
<path d="M754 105.5C747.613 186.484 717.083 259.563 665.5 320C673.431 346.333 658.8 418.373 620 443C581.2 467.627 521.833 459.761 506.5 449.5C507.5 464.739 504.3 474.644 477.5 504C450.7 533.356 373.5 538 336.5 520.195C289.508 532.614 236.453 541.646 178 544.5C150.54 544.5 129.05 534.668 112.504 520.195M754 105.5H806M754 105.5C757.636 59.3947 759.179 32.0323 759.47 17M806 105.5V17H759.47M806 105.5C863 153.333 942.8 308.1 806 544.5C635 840 227 782 178 770C129 758 40.5001 666 13.0001 593C4.46755 570.35 1.17471 544.812 0.875502 520.195M0.875502 520.195C0.403241 481.341 7.38869 444.783 13.0001 425.5H65C68.3478 451.202 82.0517 493.558 112.504 520.195M0.875502 520.195H112.504M759.47 17H754C756.652 2.15081 759.978 -9.3099 759.47 17Z" stroke="white"/>
</svg>
