<svg xmlns="http://www.w3.org/2000/svg" viewBox="0 0 805.97 178.33"><g style="isolation:isolate"><g id="Layer_1" data-name="Layer 1"><polygon points="734.46 42.87 708.5 42.87 742.55 97.26 753.91 77.13 734.46 42.87" style="fill:#61d2a4"/><path d="M232.65,145.23V51.32h22.8v74.32h48.43v19.59Z" transform="translate(-9.46 -9.11)" style="fill:#363e7d"/><path d="M312.88,98.28c0-28.18,21.33-48.57,50.84-48.57S414.43,70,414.43,98.28s-21.33,48.56-50.84,48.56S312.88,126.58,312.88,98.28Zm77.54,0c0-17-11-28.44-26.7-28.44s-26.83,11.4-26.83,28.44,11,28.44,26.83,28.44S390.42,115.31,390.42,98.28Z" transform="translate(-9.46 -9.11)" style="fill:#363e7d"/><path d="M501.64,145.23,495.2,129.4H450.93l-6.57,15.83H420.48l41.18-93.91h23.08l41.31,93.91Zm-43.46-33.41H488L473.2,75.74Z" transform="translate(-9.46 -9.11)" style="fill:#363e7d"/><path d="M542.84,145.23V51.32h41.72c31.79,0,52.18,18.38,52.18,46.82,0,28.71-20.39,47.09-52.18,47.09Zm23.07-19.72h17.57c18.11,0,29.38-10.2,29.38-27.23C612.86,81.1,601.59,71,583.48,71H565.91Z" transform="translate(-9.46 -9.11)" style="fill:#363e7d"/><path d="M659,145.23V51.32h22.81v74.32h48.42v19.59Z" transform="translate(-9.46 -9.11)" style="fill:#363e7d"/><polygon points="780.9 42.2 758.1 82.6 746.42 103.28 746.42 136.11 769.64 136.11 769.64 101.78 805.97 42.2 780.9 42.2" style="fill:#363e7d"/><polygon points="121.23 31.24 103.17 0 0 178.33 0 178.33 53.94 147.59 121.23 31.24" style="fill:#363e7d"/><polygon points="188.53 147.59 53.94 147.59 53.94 147.59 0 178.33 206.31 178.33 188.53 147.59" style="fill:#61d2a4"/><polygon points="53.94 147.59 0 178.33 90.97 147.59 53.94 147.59" style="fill:#469e78;opacity:0.5;mix-blend-mode:multiply"/></g></g></svg>